<?xml version="1.0"?>
<svg xmlns="http://www.w3.org/2000/svg" id="line" height="512px" viewBox="0 0 64 64" width="512px" class=""><g><g fill="#c4a2fc"><path d="m59.5 57h-42a3 3 0 0 0 0 6h42a3 3 0 0 0 0-6z" data-original="#C4A2FC" class="" style="fill:#1660A9" data-old_color="#C4A2FC"/><path d="m48.5 55h10a1 1 0 0 0 1-1v-38a3 3 0 0 0 -3-3h-6a3 3 0 0 0 -3 3v38a1 1 0 0 0 1 1z" data-original="#C4A2FC" class="" style="fill:#1660A9" data-old_color="#C4A2FC"/><path d="m33.5 55h10a1 1 0 0 0 1-1v-26a3 3 0 0 0 -3-3h-6a3 3 0 0 0 -3 3v26a1 1 0 0 0 1 1z" data-original="#C4A2FC" class="" style="fill:#1660A9" data-old_color="#C4A2FC"/><path d="m18.5 55h10a1 1 0 0 0 1-1v-14a3 3 0 0 0 -3-3h-6a3 3 0 0 0 -3 3v14a1 1 0 0 0 1 1z" data-original="#C4A2FC" class="" style="fill:#1660A9" data-old_color="#C4A2FC"/></g><path d="m26.5 1a25 25 0 1 0 25 25 25.028 25.028 0 0 0 -25-25zm0 48a23 23 0 1 1 23-23 23.026 23.026 0 0 1 -23 23z" fill="#151a6a" data-original="#151A6A" class="active-path" style="fill:#1660A9" data-old_color="#151a6a"/><path d="m26.5 6a20 20 0 1 0 20 20 20.023 20.023 0 0 0 -20-20zm0 38a18 18 0 1 1 18-18 18.021 18.021 0 0 1 -18 18z" fill="#151a6a" data-original="#151A6A" class="active-path" style="fill:#1660A9" data-old_color="#151a6a"/><path d="m211.086 24.932c-.635-.225-1.2-.435-1.724-.639v-8.31a5.4 5.4 0 0 1 2.8 1.15 1 1 0 0 0 1.351-1.474 7.448 7.448 0 0 0 -4.149-1.685v-1.974a1 1 0 1 0 -2 0v2.061a8.716 8.716 0 0 0 -1.085.246 5.741 5.741 0 0 0 -3.925 4.509 4.994 4.994 0 0 0 1.611 4.923 15.1 15.1 0 0 0 3.4 1.9v10.168a6.878 6.878 0 0 1 -4.209-1.375 1 1 0 1 0 -1.097 1.668 8.808 8.808 0 0 0 5.3 1.705v2.195a1 1 0 0 0 2 0v-2.258a7 7 0 0 0 5.941-5.821 6.11 6.11 0 0 0 -4.214-6.989zm-3.724-1.485a11.346 11.346 0 0 1 -2.162-1.281 3.018 3.018 0 0 1 -.881-2.979 3.771 3.771 0 0 1 2.537-2.965c.173-.052.342-.093.508-.129zm5.965 8.143a5.033 5.033 0 0 1 -3.965 4.128v-9.285c.337.126.686.253 1.058.384a4.141 4.141 0 0 1 2.907 4.773z" fill="#151a6a" data-original="#151A6A" class="active-path" style="fill:#1660A9" data-old_color="#151a6a"/></g> </svg>
