<svg id="Capa_1" enable-background="new 0 0 512 512" height="512" viewBox="0 0 512 512" width="512" xmlns="http://www.w3.org/2000/svg"><g><path d="m214.9 365.89h14.92l-7.43-19.64z"/><path d="m469.21 229h-14.677l-131.243-114.6c-5.07 8.76-11.81 16.43-19.78 22.57l105.4 92.03h-304.82l105.4-92.03c-7.97-6.14-14.71-13.82-19.77-22.57l-131.242 114.6h-15.688c-23.6 0-42.79 19.19-42.79 42.79v168.42c0 23.6 19.19 42.79 42.79 42.79h426.42c23.6 0 42.79-19.19 42.79-42.79v-168.42c0-23.6-19.19-42.79-42.79-42.79zm-311.43 156.81c-6.7 37.61-60.46 44.42-88.04 14.04-5.57-6.13-5.11-15.62 1.02-21.18 6.13-5.58 15.62-5.12 21.19 1.02 5.29 5.83 13.67 9.31 22.42 9.31 8.44 0 13.27-5.04 13.87-8.45.72-4-5.06-7.64-10.7-9.72-15.01-5.52-28.35-11.45-28.91-11.7-10.05-4.47-19.3-18.53-17.05-34.26 4.862-33.861 50.1-41.663 77.95-18.69 11.003 8.856 4.851 26.95-9.2 26.95-5.334 0-9.547-3.234-9.8-3.74-11.08-8.85-28.17-7.84-29.25-.27-.14.96-.05 2.23 1.01 3.25 3.77 1.64 14.32 6.15 25.61 10.31 25.99 9.57 32.48 28.55 29.88 43.13zm102.72 33.81c-6.06 0-11.76-3.7-14.03-9.7l-5.31-14.03h-37.71l-5.37 14.07c-2.96 7.74-11.62 11.62-19.37 8.67-7.74-2.96-11.62-11.63-8.66-19.37 38.1-99.82 36.4-95.37 36.49-95.59 5.92-14.44 26.51-14.08 31.97.38l36.02 95.26c3.73 9.85-3.61 20.31-14.03 20.31zm86.04.3c-12.05.06-33.76.27-36.65-.22-7.2-1.23-12.47-7.48-12.47-14.78v-96.92c0-8.28 6.72-15 15-15 8.29 0 15 6.72 15 15v81.99c10.95-.021 17.68-.07 111.04-.07 8.24 0 14.95 6.66 15 14.91.04 8.29-6.64 15.04-14.92 15.09zm83.6-78.69c8.29 0 15 6.71 15 15 0 8.28-6.71 15-15 15h-22.72v18.23h25.73c8.28 0 15 6.71 15 15 0 8.28-6.72 15-15 15h-40.73c-8.29 0-15-6.72-15-15v-96.46c0-8.28 6.71-15 15-15h40.73c8.28 0 15 6.72 15 15s-6.72 15-15 15h-25.73v18.23z"/><path d="m213.04 94.03c13.045 32.613 58.428 39.842 80.894 10.417 23.665-30.96 1.225-75.447-37.433-75.447-33.445 0-56.366 34.124-43.461 65.03z"/></g></svg>