<?xml version="1.0"?>
<svg xmlns="http://www.w3.org/2000/svg" id="Capa_1" enable-background="new 0 0 512 512" height="512px" viewBox="0 0 512 512" width="512px" class=""><g><g><path d="m452.897 512h-207.019l-43.878-20-69.193 20h-73.704l48.581-407h296.632c.395 3.305-2.49-20.869 14.283 119.677l-4.09 59.515 16.143 41.456z" fill="#ade993" data-original="#ADE993" class="" style="fill:#EFF2FB" data-old_color="#ade993"/><path d="m256 105v407h196.897l-22.244-186.359-26.043-39.631 13.991-61.336-14.284-119.674z" fill="#76d081" data-original="#76D081" class="" style="fill:#EFF2FB" data-old_color="#76d081"/><path d="m346 180h-30v-90c0-33.084-26.916-60-60-60s-60 26.916-60 60v90h-30v-90c0-49.626 40.374-90 90-90s90 40.374 90 90z" fill="#4e6ba6" data-original="#4E6BA6" class="" style="fill:#EFF2FB" data-old_color="#4e6ba6"/><path d="m316 90v90h30v-90c0-49.626-40.374-90-90-90v30c33.084 0 60 26.916 60 60z" fill="#28487a" data-original="#28487A" class="" style="fill:#EFF2FB" data-old_color="#28487a"/><path d="m418.601 224.674c-34.099 34.281-282.475 283.99-285.794 287.326h113.07c3.844-3.877 155.777-157.105 184.776-186.353-1.162-9.733-10.787-90.368-12.052-100.973z" fill="#f6e486" data-original="#F6E486" class="" style="fill:#1660A9" data-old_color="#f6e486"/><path d="m430.654 325.647c-1.162-9.733-10.787-90.368-12.053-100.974-.24.24-161.078 161.572-162.601 163.099v113.958c3.254-3.28 140.603-141.753 174.654-176.083z" fill="#f0ce46" data-original="#F0CE46" class="active-path" style="fill:#1660A9" data-old_color="#f0ce46"/></g></g> </svg>
