<?xml version="1.0" encoding="iso-8859-1"?>
<!-- Generator: Adobe Illustrator 111.0.0, SVG Export Plug-In . SVG Version: 6.00 Build 0)  -->
<svg version="1.1" id="Capa_1" xmlns="http://www.w3.org/2000/svg" xmlns:xlink="http://www.w3.org/1999/xlink" x="0px" y="0px"
	 viewBox="0 0 512 512" style="enable-background:new 0 0 512 512;" xml:space="preserve">
<g>
	<g>
		<rect x="150" y="360" width="212" height="62"/>
	</g>
</g>
<g>
	<g>
		<path d="M497,210H15c-8.291,0-15,6.709-15,15v30c0,8.291,6.709,15,15,15h482c8.291,0,15-6.709,15-15v-30
			C512,216.709,505.291,210,497,210z"/>
	</g>
</g>
<g>
	<g>
		<path d="M120,90c-16.538,0-30,13.462-30,30c0,2.591,0.859,4.909,1.479,7.31l-27.085,27.085C61.582,157.207,60,161.016,60,165v15
			h30v-8.789l22.69-22.69c2.401,0.621,4.719,1.479,7.31,1.479c16.538,0,30-13.462,30-30C150,103.462,136.538,90,120,90z"/>
	</g>
</g>
<g>
	<g>
		<path d="M328.447,142.939c-5.685-17.073-16.99-30.959-31.337-40.283C308.135,91.771,315,76.685,315,60c0-33.091-26.909-60-60-60
			s-60,26.909-60,60c0,16.685,6.865,31.771,17.889,42.656c-14.346,9.324-25.651,23.21-31.337,40.283L169.195,180h171.61
			L328.447,142.939z"/>
	</g>
</g>
<g>
	<g>
		<path d="M447.605,154.395L420.52,127.31c0.621-2.401,1.479-4.719,1.479-7.31c0-16.538-13.462-30-30-30c-16.538,0-30,13.462-30,30
			s13.463,30,30.001,30c2.591,0,4.909-0.859,7.31-1.479l22.69,22.69V180h30v-15C452,161.016,450.418,157.207,447.605,154.395z"/>
	</g>
</g>
<g>
	<g>
		<path d="M30,300v197c0,8.291,6.709,15,15,15h422c8.291,0,15-6.709,15-15V300H30z M392,437c0,8.291-6.709,15-15,15H135
			c-8.291,0-15-6.709-15-15v-92c0-8.291,6.709-15,15-15h242c8.291,0,15,6.709,15,15V437z"/>
	</g>
</g>
<g>
</g>
<g>
</g>
<g>
</g>
<g>
</g>
<g>
</g>
<g>
</g>
<g>
</g>
<g>
</g>
<g>
</g>
<g>
</g>
<g>
</g>
<g>
</g>
<g>
</g>
<g>
</g>
<g>
</g>
</svg>
